<svg preserveAspectRatio="none" overflow="visible" style="display: block;" width="10.4" height="12.8" viewBox="0 0 10.4 12.8" fill="none" xmlns="http://www.w3.org/2000/svg">
<g id="Container">
<path id="Icon" d="M5.2 6.4C5.53333 6.4 5.81667 6.28333 6.05 6.05C6.28333 5.81667 6.4 5.53333 6.4 5.2C6.4 4.86667 6.28333 4.58333 6.05 4.35C5.81667 4.11667 5.53333 4 5.2 4C4.86667 4 4.58333 4.11667 4.35 4.35C4.11667 4.58333 4 4.86667 4 5.2C4 5.53333 4.11667 5.81667 4.35 6.05C4.58333 6.28333 4.86667 6.4 5.2 6.4V6.4M5.2 11.2167C6.52222 10.0278 7.51944 8.93333 8.19167 7.93333C8.86389 6.93333 9.2 6.03889 9.2 5.25C9.2 4.08333 8.81944 3.11667 8.05833 2.35C7.29722 1.58333 6.34444 1.2 5.2 1.2C4.05556 1.2 3.10278 1.58333 2.34167 2.35C1.58056 3.11667 1.2 4.08333 1.2 5.25C1.2 6.03889 1.53611 6.93333 2.20833 7.93333C2.88056 8.93333 3.87778 10.0278 5.2 11.2167V11.2167M5.2 12.8C3.45556 11.3444 2.15278 9.99167 1.29167 8.74167C0.430556 7.49167 0 6.32778 0 5.25C0 3.76111 0.494444 2.51389 1.48333 1.50833C2.47222 0.502778 3.71111 0 5.2 0C6.67778 0 7.91389 0.502778 8.90833 1.50833C9.90278 2.51389 10.4 3.76111 10.4 5.25C10.4 6.32778 9.97222 7.48889 9.11667 8.73333C8.26111 9.97778 6.95556 11.3333 5.2 12.8V12.8M5.2 5.2V5.2V5.2V5.2V5.2V5.2V5.2V5.2V5.2V5.2" fill="#1D4ED8"/>
</g>
</svg>
