<svg preserveAspectRatio="none" overflow="visible" style="display: block;" width="48" height="46" viewBox="0 0 48 46" fill="none" xmlns="http://www.w3.org/2000/svg">
<g id="Container">
<path id="Icon" d="M11.7 46C10.1 46 8.75 45.45 7.65 44.35C6.55 43.25 6 41.9 6 40.3C6 38.7 6.55417 37.35 7.6625 36.25C8.77083 35.15 10.1167 34.6 11.7 34.6C12.1667 34.6 12.575 34.6417 12.925 34.725C13.275 34.8083 13.6333 34.9333 14 35.1L18.25 29.8C17.6167 29.0333 17.1333 28.1583 16.8 27.175C16.4667 26.1917 16.3833 25.1667 16.55 24.1L10.5 22.05C10 22.8833 9.34167 23.5333 8.525 24C7.70833 24.4667 6.76667 24.7 5.7 24.7C4.11667 24.7 2.77083 24.1458 1.6625 23.0375C0.554167 21.9292 0 20.5833 0 19C0 17.4167 0.554167 16.0708 1.6625 14.9625C2.77083 13.8542 4.11667 13.3 5.7 13.3C7.28333 13.3 8.62917 13.8542 9.7375 14.9625C10.8458 16.0708 11.4 17.4167 11.4 19C11.4 19 11.4 19.0333 11.4 19.1C11.4 19.1667 11.4 19.2 11.4 19.2L17.5 21.3C18.1 20.2333 18.825 19.4167 19.675 18.85C20.525 18.2833 21.4667 17.8833 22.5 17.65V11.2C21.2 10.8333 20.175 10.1167 19.425 9.05C18.675 7.98333 18.3 6.86667 18.3 5.7C18.3 4.11667 18.85 2.77083 19.95 1.6625C21.05 0.554167 22.4 0 24 0C25.6 0 26.95 0.554167 28.05 1.6625C29.15 2.77083 29.7 4.11667 29.7 5.7C29.7 6.86667 29.3167 7.98333 28.55 9.05C27.7833 10.1167 26.7667 10.8333 25.5 11.2V17.65C26.5333 17.8833 27.4833 18.2833 28.35 18.85C29.2167 19.4167 29.95 20.2333 30.55 21.3L36.6 19.2C36.6 19.2 36.6 19.1667 36.6 19.1C36.6 19.0333 36.6 19 36.6 19C36.6 17.4167 37.1542 16.0708 38.2625 14.9625C39.3708 13.8542 40.7167 13.3 42.3 13.3C43.8833 13.3 45.2292 13.85 46.3375 14.95C47.4458 16.05 48 17.4 48 19C48 20.6 47.4458 21.95 46.3375 23.05C45.2292 24.15 43.8833 24.7 42.3 24.7C41.2333 24.7 40.2833 24.4667 39.45 24C38.6167 23.5333 37.9667 22.8833 37.5 22.05L31.45 24.1C31.6167 25.1667 31.5417 26.1917 31.225 27.175C30.9083 28.1583 30.4167 29.0333 29.75 29.8L34 35.1C34.3667 34.9333 34.725 34.8083 35.075 34.725C35.425 34.6417 35.826 34.6 36.2781 34.6C37.8927 34.6 39.25 35.15 40.35 36.25C41.45 37.35 42 38.7 42 40.3C42 41.9 41.45 43.25 40.35 44.35C39.25 45.45 37.9 46 36.3 46C34.7 46 33.35 45.4458 32.25 44.3375C31.15 43.2292 30.6 41.8833 30.6 40.3C30.6 39.6333 30.6917 39.0333 30.875 38.5C31.0583 37.9667 31.3167 37.45 31.65 36.95L27.4 31.65C26.3291 32.2167 25.1864 32.5 23.9718 32.5C22.7573 32.5 21.6167 32.2167 20.55 31.65L16.35 37C16.6833 37.5 16.9417 38.0083 17.125 38.525C17.3083 39.0417 17.4 39.6333 17.4 40.3C17.4 41.8833 16.85 43.2292 15.75 44.3375C14.65 45.4458 13.3 46 11.7 46V46M5.70175 21.7C6.46725 21.7 7.10833 21.4411 7.625 20.9232C8.14167 20.4054 8.4 19.7637 8.4 18.9982C8.4 18.2327 8.14108 17.5917 7.62325 17.075C7.10541 16.5583 6.46374 16.3 5.69825 16.3C4.93275 16.3 4.29167 16.5589 3.775 17.0768C3.25833 17.5946 3 18.2363 3 19.0018C3 19.7673 3.25892 20.4083 3.77675 20.925C4.29459 21.4417 4.93626 21.7 5.70175 21.7V21.7M11.7018 43C12.4673 43 13.1083 42.7411 13.625 42.2232C14.1417 41.7054 14.4 41.0637 14.4 40.2982C14.4 39.5327 14.1411 38.8917 13.6232 38.375C13.1054 37.8583 12.4637 37.6 11.6982 37.6C10.9327 37.6 10.2917 37.8589 9.775 38.3768C9.25833 38.8946 9 39.5363 9 40.3018C9 41.0673 9.25892 41.7083 9.77675 42.225C10.2946 42.7417 10.9363 43 11.7018 43V43M24.0018 8.4C24.7673 8.4 25.4083 8.14108 25.925 7.62325C26.4417 7.10541 26.7 6.46374 26.7 5.69825C26.7 4.93275 26.4411 4.29167 25.9232 3.775C25.4054 3.25833 24.7637 3 23.9982 3C23.2327 3 22.5917 3.25892 22.075 3.77675C21.5583 4.29459 21.3 4.93626 21.3 5.70175C21.3 6.46725 21.5589 7.10833 22.0768 7.625C22.5946 8.14167 23.2363 8.4 24.0018 8.4V8.4M24.025 29.5C25.275 29.5 26.3333 29.0583 27.2 28.175C28.0667 27.2917 28.5 26.225 28.5 24.975C28.5 23.725 28.065 22.6667 27.195 21.8C26.325 20.9333 25.26 20.5 24 20.5C22.7667 20.5 21.7083 20.935 20.825 21.805C19.9417 22.675 19.5 23.74 19.5 25C19.5 26.2333 19.9417 27.2917 20.825 28.175C21.7083 29.0583 22.775 29.5 24.025 29.5V29.5M36.3018 43C37.0673 43 37.7083 42.7411 38.225 42.2232C38.7417 41.7054 39 41.0637 39 40.2982C39 39.5327 38.7411 38.8917 38.2232 38.375C37.7054 37.8583 37.0637 37.6 36.2982 37.6C35.5327 37.6 34.8917 37.8589 34.375 38.3768C33.8583 38.8946 33.6 39.5363 33.6 40.3018C33.6 41.0673 33.8589 41.7083 34.3768 42.225C34.8946 42.7417 35.5363 43 36.3018 43V43M42.3018 21.7C43.0673 21.7 43.7083 21.4411 44.225 20.9232C44.7417 20.4054 45 19.7637 45 18.9982C45 18.2327 44.7411 17.5917 44.2232 17.075C43.7054 16.5583 43.0637 16.3 42.2982 16.3C41.5327 16.3 40.8917 16.5589 40.375 17.0768C39.8583 17.5946 39.6 18.2363 39.6 19.0018C39.6 19.7673 39.8589 20.4083 40.3768 20.925C40.8946 21.4417 41.5363 21.7 42.3018 21.7V21.7M24 5.7V5.7V5.7V5.7V5.7V5.7V5.7V5.7V5.7V5.7M5.7 19V19V19V19V19V19V19V19V19V19M24 25V25V25V25V25V25V25V25V25V25M42.3 19V19V19V19V19V19V19V19V19V19M11.7 40.3V40.3V40.3V40.3V40.3V40.3V40.3V40.3V40.3V40.3M36.3 40.3V40.3V40.3V40.3V40.3V40.3V40.3V40.3V40.3V40.3" fill="#1D4ED8"/>
</g>
</svg>
